:SAMPLES-PER-SECOND 30
:FULLY-SPECIFIED
:DEGREES
51
root  -25.6045 21.5496 2.39981 112.638 74.2642 95.6309
RightUpLeg  5.61258 9.14888 0.911689
RightLeg  78.8092 9.49537 -8.96604
RightFoot  -15.9587 -0.546835 -21.5464
RightToes  -7.56701e-010 -1.59028e-015 9.93923e-017
Spine  52.4846 0.933344 9.8051
Spine1  19.6099 10.1439 -15.7799
HEad  -56.2529 -26.1398 20.1538
LeftShoulder1  9.93923e-017 0 1.22299e-017
LeftArm  21.3679 -3.79448 -71.7144
LeftForeArm  -42.657 -54.8603 34.9045
LeftHand  1.55234 11.0341 -0.125453
RightShoulder  1.98785e-016 -4.96962e-017 1.55301e-017
RightArm  -16.3338 25.1272 57.2951
RightForeArm  12.4391 2.90739 -6.21596
RightHand  8.52571 -21.5577 -43.6272
LeftUpLeg  -95.3391 -4.74378 -13.8357
LeftLeg  100.573 -13.4567 0.350425
LeftFoot  -19.1409 -0.0944865 -0.750711
LeftToes  1.17689e-009 -8.96121e-011 5.75302e-011
52
root  -25.1082 22.3349 1.88863 104.021 76.7563 87.4083
RightUpLeg  6.83501 10.6239 0.0122917
RightLeg  74.8751 9.20462 -6.96299
RightFoot  -13.6422 -0.0999874 -20.0493
RightToes  -7.56701e-010 -1.59028e-015 9.93923e-017
Spine  55.3871 0.97441 11.5413
Spine1  16.3567 11.9584 -16.958
HEad  -57.7793 -26.5838 20.3315
LeftShoulder1  9.93923e-017 0 1.22299e-017
LeftArm  23.5832 0.236022 -74.8113
LeftForeArm  -42.637 -53.3876 33.3944
LeftHand  1.47809 10.4844 -0.046243
RightShoulder  1.98785e-016 -4.96962e-017 1.55301e-017
RightArm  -14.233 23.764 56.4066
RightForeArm  12.2763 0.383081 -3.539
RightHand  8.7233 -21.761 -44.1403
LeftUpLeg  -92.6202 -3.86544 -12.3449
LeftLeg  99.1978 -13.9146 2.80681
LeftFoot  -20.7355 -0.0930003 -0.505133
LeftToes  1.17689e-009 -8.96121e-011 5.75302e-011
53
root  -24.5762 23.5203 1.3571 97.9228 76.4446 81.8192
RightUpLeg  8.61291 12.0588 -3.04337
RightLeg  69.6056 9.76485 -2.87291
RightFoot  -10.5635 0.399749 -17.9241
RightToes  -7.56701e-010 -1.59028e-015 9.93923e-017
Spine  58.7126 0.449515 11.7318
Spine1  13.6931 12.3984 -18.2727
HEad  -60.4949 -27.0384 21.0261
LeftShoulder1  9.93923e-017 0 1.22299e-017
LeftArm  25.3117 3.03962 -78.0716
LeftForeArm  -39.816 -51.1957 31.6055
LeftHand  1.3402 10.3024 -3.80013
RightShoulder  1.98785e-016 -4.96962e-017 1.55301e-017
RightArm  -11.9013 23.3451 54.9905
RightForeArm  12.3795 -2.05383 -0.114341
RightHand  8.67111 -21.7588 -43.8561
LeftUpLeg  -87.5613 -4.31542 -13.6508
LeftLeg  95.4679 -13.8688 4.83
LeftFoot  -21.5818 -0.0984325 -0.501477
LeftToes  1.17689e-009 -8.96121e-011 5.75302e-011
54
root  -23.87 25.0254 0.77155 100.411 72.0499 85.8356
RightUpLeg  12.7333 12.1914 -9.45364
RightLeg  62.3337 11.625 2.44034
RightFoot  -6.91389 0.880753 -16.1049
RightToes  -7.56701e-010 -1.59028e-015 9.93923e-017
Spine  62.0582 -1.16487 9.35911
Spine1  12.3462 9.82773 -18.9786
HEad  -63.1193 -26.4542 21.5444
LeftShoulder1  9.93923e-017 0 1.22299e-017
LeftArm  25.001 5.2328 -80.711
LeftForeArm  -35.364 -47.8285 29.2374
LeftHand  1.19062 10.2566 -9.22024
RightShoulder  1.98785e-016 -4.96962e-017 1.55301e-017
RightArm  -9.88933 23.4935 54.5213
RightForeArm  12.9453 -0.969705 1.26543
RightHand  7.49465 -20.8548 -39.4822
LeftUpLeg  -78.7142 -7.35714 -19.0648
LeftLeg  89.3039 -13.311 7.34312
LeftFoot  -22.134 -0.101291 -0.48593
LeftToes  1.17689e-009 -8.96121e-011 5.75302e-011
55
root  -23.0955 26.394 0.479213 97.1069 72.1938 81.8145
RightUpLeg  13.9759 15.137 -9.70129
RightLeg  55.6033 13.7913 5.4551
RightFoot  -1.90039 1.33788 -13.6655
RightToes  -7.56701e-010 -1.59028e-015 9.93923e-017
Spine  62.4436 -0.219687 7.37558
Spine1  10.7964 9.18573 -18.8139
HEad  -63.9108 -24.9883 21.1138
LeftShoulder1  9.93923e-017 0 1.22299e-017
LeftArm  23.642 7.05065 -82.3309
LeftForeArm  -34.1367 -43.4499 26.3335
LeftHand  1.12435 10.1973 -11.5155
RightShoulder  1.98785e-016 -4.96962e-017 1.55301e-017
RightArm  -8.57819 24.1142 56.1178
RightForeArm  13.0762 -0.490064 2.1731
RightHand  5.23694 -18.6268 -30.2877
LeftUpLeg  -74.2607 -6.73245 -19.5585
LeftLeg  84.9045 -12.5799 7.91322
LeftFoot  -22.8885 -0.110684 -0.533934
LeftToes  1.17689e-009 -8.96121e-011 5.75302e-011
56
root  -22.3508 27.8105 0.276875 92.5303 72.8278 77.7377
RightUpLeg  15.5677 17.8898 -8.95211
RightLeg  49.8066 15.9425 7.28693
RightFoot  6.12901 1.47148 -8.82918
RightToes  -7.56701e-010 -1.59028e-015 9.93923e-017
Spine  63.8348 0.728724 5.02438
Spine1  8.38846 8.23077 -18.695
HEad  -62.6815 -23.7923 19.6281
LeftShoulder1  9.93923e-017 0 1.22299e-017
LeftArm  23.8467 8.20436 -83.1909
LeftForeArm  -37.9243 -38.6925 23.3631
LeftHand  1.16338 10.1527 -9.90092
RightShoulder  1.98785e-016 -4.96962e-017 1.55301e-017
RightArm  -7.48834 24.8101 59.4424
RightForeArm  13.7015 -0.0650354 2.95542
RightHand  3.2993 -15.9286 -20.8149
LeftUpLeg  -68.9201 -5.84228 -19.1346
LeftLeg  80.2013 -11.7397 8.15553
LeftFoot  -23.0961 -0.127772 -0.718569
LeftToes  1.17689e-009 -8.96121e-011 5.75302e-011
57
root  -21.6237 29.1054 0.119116 86.4713 73.544 71.4528
RightUpLeg  14.3161 19.8216 -8.84959
RightLeg  47.1274 17.421 8.38879
RightFoot  15.3145 0.637641 -2.51983
RightToes  -7.56701e-010 -1.59028e-015 9.93923e-017
Spine  63.8931 2.28253 2.48476
Spine1  5.78153 7.66571 -18.7372
HEad  -61.0686 -23.0482 18.1032
LeftShoulder1  9.93923e-017 0 1.22299e-017
LeftArm  26.3756 8.40379 -83.6013
LeftForeArm  -42.0305 -34.5926 21.1025
LeftHand  1.19737 9.86763 -7.94468
RightShoulder  1.98785e-016 -4.96962e-017 1.55301e-017
RightArm  -6.25343 24.4173 63.4051
RightForeArm  15.4535 0.489161 3.95871
RightHand  2.44703 -14.1789 -16.1027
LeftUpLeg  -64.7675 -5.41575 -17.9932
LeftLeg  75.4989 -10.7378 8.98401
LeftFoot  -22.9404 -0.174009 -1.28997
LeftToes  1.17689e-009 -8.96121e-011 5.75302e-011
58
root  -20.8561 30.2479 -0.0190146 80.6938 74.2221 65.1476
RightUpLeg  10.6489 20.0282 -9.47086
RightLeg  47.9906 17.4661 8.64951
RightFoot  21.0058 -0.799621 2.69555
RightToes  -7.56701e-010 -1.59028e-015 9.93923e-017
Spine  62.5254 3.7508 0.184171
Spine1  3.99779 7.37737 -18.6354
HEad  -60.2845 -21.8813 17.3631
LeftShoulder1  9.93923e-017 0 1.22299e-017
LeftArm  28.9919 7.78571 -83.7305
LeftForeArm  -41.8232 -32.0441 19.9692
LeftHand  1.17564 9.49612 -7.70495
RightShoulder  1.98785e-016 -4.96962e-017 1.55301e-017
RightArm  -4.41669 22.0185 67.1747
RightForeArm  15.9731 1.47968 4.99701
RightHand  2.38322 -13.8812 -16.1415
LeftUpLeg  -61.1476 -6.06232 -16.4015
LeftLeg  70.9751 -9.39523 10.6053
LeftFoot  -22.9897 -0.26789 -2.39808
LeftToes  1.17689e-009 -8.96121e-011 5.75302e-011
59
root  -19.902 31.2668 -0.23061 78.5208 75.6318 62.3395
RightUpLeg  5.56867 17.507 -10.0254
RightLeg  51.3936 16.4251 8.26411
RightFoot  20.3335 -1.58627 5.30959
RightToes  -7.56701e-010 -1.59028e-015 9.93923e-017
Spine  59.4551 3.82718 -0.752792
Spine1  3.81705 6.85948 -17.9529
HEad  -59.7906 -19.7657 16.7936
LeftShoulder1  9.93923e-017 0 1.22299e-017
LeftArm  29.8186 6.53873 -83.7235
LeftForeArm  -38.3921 -31.0933 19.7413
LeftHand  1.14295 9.10296 -7.89896
RightShoulder  1.98785e-016 -4.96962e-017 1.55301e-017
RightArm  0.362629 17.8542 70.7028
RightForeArm  11.4836 4.48178 5.08804
RightHand  2.58378 -14.3206 -17.4073
LeftUpLeg  -57.7185 -8.4687 -14.3098
LeftLeg  66.8499 -7.74757 12.4777
LeftFoot  -23.2816 -0.378774 -3.60222
LeftToes  1.17689e-009 -8.96121e-011 5.75302e-011
60
root  -18.8236 32.286 -0.386612 74.8732 77.4889 59.7172
RightUpLeg  1.26328 14.3829 -9.42185
RightLeg  55.9232 15.0067 7.40822
RightFoot  14.4557 -1.44157 5.86944
RightToes  -7.56701e-010 -1.59028e-015 9.93923e-017
Spine  57.3412 3.71743 -1.2319
Spine1  4.06434 6.30185 -16.102
HEad  -58.5972 -16.9771 15.3191
LeftShoulder1  9.93923e-017 0 1.22299e-017
LeftArm  29.6645 4.70994 -83.6253
LeftForeArm  -36.0881 -31.2304 19.9255
LeftHand  1.12912 8.74751 -7.06201
RightShoulder  1.98785e-016 -4.96962e-017 1.55301e-017
RightArm  9.52885 12.7211 74.2902
RightForeArm  1.6966 9.59319 3.337
RightHand  2.67944 -14.5996 -17.7265
LeftUpLeg  -52.4275 -10.4047 -12.0962
LeftLeg  62.8996 -6.01845 13.753
LeftFoot  -23.6402 -0.465702 -4.4357
LeftToes  1.17689e-009 -8.96121e-011 5.75302e-011
61
root  -17.6563 33.2193 -0.531552 71.7159 80.2139 57.0185
RightUpLeg  -4.57377 10.7918 -7.58718
RightLeg  60.7864 13.761 6.42132
RightFoot  6.69924 -0.989929 5.67451
RightToes  -7.56701e-010 -1.59028e-015 9.93923e-017
Spine  53.8831 2.93525 -0.739167
Spine1  4.54072 5.50543 -13.8439
HEad  -56.793 -13.8621 13.0687
LeftShoulder1  9.93923e-017 0 1.22299e-017
LeftArm  29.5252 2.41528 -83.2528
LeftForeArm  -35.8576 -31.8431 20.2046
LeftHand  1.13234 8.52418 -5.41806
RightShoulder  1.98785e-016 -4.96962e-017 1.55301e-017
RightArm  21.0393 6.86008 77.9757
RightForeArm  -10.6971 13.2385 1.26447
RightHand  2.65214 -14.619 -17.3069
LeftUpLeg  -47.8386 -12.2221 -9.37791
LeftLeg  59.2571 -4.38352 14.4757
LeftFoot  -24.0497 -0.519759 -4.82991
LeftToes  1.17689e-009 -8.96121e-011 5.75302e-011
